<?xml version="1.0" encoding="UTF-8" standalone="no"?>
<!-- Created with Inkscape (http://www.inkscape.org/) -->

<svg
   width="174.86414mm"
   height="129.49756mm"
   viewBox="0 0 174.86414 129.49756"
   version="1.1"
   id="svg1"
   xml:space="preserve"
   inkscape:version="1.4.2 (f4327f4, 2025-05-13)"
   sodipodi:docname="Mapa IES vidreres.svg"
   inkscape:export-filename="Mapa IES vidreres_v2.svg"
   inkscape:export-xdpi="241.90475"
   inkscape:export-ydpi="241.90475"
   xmlns:inkscape="http://www.inkscape.org/namespaces/inkscape"
   xmlns:sodipodi="http://sodipodi.sourceforge.net/DTD/sodipodi-0.dtd"
   xmlns="http://www.w3.org/2000/svg"
   xmlns:svg="http://www.w3.org/2000/svg"><sodipodi:namedview
     id="namedview1"
     pagecolor="#ffffff"
     bordercolor="#000000"
     borderopacity="0.25"
     inkscape:showpageshadow="2"
     inkscape:pageopacity="0.0"
     inkscape:pagecheckerboard="0"
     inkscape:deskcolor="#d1d1d1"
     inkscape:document-units="mm"
     inkscape:lockguides="false"
     inkscape:zoom="0.074055369"
     inkscape:cx="-526.63298"
     inkscape:cy="249.81308"
     inkscape:window-width="1920"
     inkscape:window-height="991"
     inkscape:window-x="1911"
     inkscape:window-y="-9"
     inkscape:window-maximized="1"
     inkscape:current-layer="g74"><inkscape:page
       x="0"
       y="0"
       width="174.86414"
       height="129.49756"
       id="page2"
       margin="0"
       bleed="0" /></sodipodi:namedview><defs
     id="defs1" /><g
     inkscape:label="Capa 1"
     inkscape:groupmode="layer"
     id="layer1"
     transform="translate(-18.253391,-21.301527)"><rect
       style="fill:#cecece;fill-opacity:1;stroke:none;stroke-width:0;stroke-dasharray:none;stroke-opacity:1"
       id="rect95"
       width="174.83022"
       height="129.45059"
       x="18.247795"
       y="21.353394"
       ry="0"
       inkscape:label="Fondo"
       transform="matrix(0.99999996,-2.6862923e-4,2.6212339e-4,0.99999997,0,0)" /><path
       style="fill:#66d216;fill-opacity:1;stroke:none;stroke-width:0;stroke-dasharray:none;stroke-opacity:1"
       d="m 133.42899,69.088767 -0.82138,2.635188 -1.27226,-0.625454 -1.3289,3.368508 0.75076,2.3274 -0.88308,2.056963 -0.11064,0.286979 -1.22069,-1.070081 -1.2311,2.88176 0.17918,3.96506 -0.37648,1.24836 -1.26214,-0.65154 -1.09664,2.84373 -0.1192,0.85311 0.56366,1.68583 0.28818,1.04015 0.27997,0.16788 1.74904,-4.03064 3.94847,1.61249 15.61946,6.00814 0.13132,-0.92336 -0.63492,-0.52954 0.23596,-1.27258 -0.69655,-0.0588 -0.20607,0.3401 -1.18032,-0.1255 -0.13389,-0.7409 -1.38026,0.0821 -0.03,-0.31119 -0.77893,-7.2e-4 0.14587,-0.37829 -1.06405,0.0392 -0.10985,-0.68668 -0.96967,0.10555 5e-4,-0.58419 -1.70952,0.11996 -0.32021,-1.11246 c 0,0 -1.99563,0.0846 -1.86609,0.0596 0.12953,-0.025 -0.33455,-0.80331 -0.33455,-0.80331 l -0.87138,0.0836 -1.24259,-0.11953 0.7885,-1.73383 -4.2323,-1.88676 -0.0685,0.99266 -0.41365,0.14018 0.0542,0.83016 -0.93044,-0.0741 0.0193,-1.17641 -1.08167,-0.53696 0.10807,-0.70756 1.39724,0.0293 5.19754,-2.32623 15.11058,6.00668 0.49404,-1.39783 -15.48756,-6.46674 0.90619,-2.078018 -2.72122,-0.01541 -0.41693,1.547451 -0.88828,-0.02789 -0.25466,-1.476769 -0.53484,-0.20624 0.0656,-0.75377 0.87167,-0.473026 -0.10421,-0.234972 16.64526,2.687545 4.26054,1.657929 -1.95683,6.31805 0.77873,0.19541 3.87107,-9.805494 -1.12539,-0.928468 z"
       id="path75" /><g
       id="g74"
       transform="matrix(0.08207111,0.03323526,-0.03323526,0.08207111,133.4526,70.091255)"><path
         style="fill:#b3ffff;fill-opacity:1;stroke:none;stroke-width:0;stroke-dasharray:none;stroke-opacity:1"
         d="M 9.6316521,33.789731 201.15942,32.368667 201.39626,75.31636 81.55325,75.711099 81.94799,125.92201 h 114.00086 l 0.23685,42.86874 -114.711399,0.23685 0.552638,50.05301 113.685071,0.15789 0.63158,42.47401 L 9.9474439,262.81778 9.7106001,219.31745 63.395216,219.15956 63.31627,168.8697 10.342184,169.58023 9.6316521,126.3957 63.079425,126.0799 63.237321,76.263737 9.4737559,76.737423 Z"
         id="path73"
         inkscape:label="Interior" /><path
         style="fill:none;stroke:#000000;stroke-width:1;stroke-dasharray:none;stroke-opacity:1"
         d="M 71.632518,75.954963 9.3652974,76.60333 9.4853653,33.715071 201.30587,32.178201 201.49798,75.306596 78.044145,75.762854"
         id="path9" /><path
         style="fill:none;stroke:#000000;stroke-width:1;stroke-dasharray:none;stroke-opacity:1"
         d="m 38.757923,75.114488 0.02402,1.152652"
         id="path10"
         sodipodi:nodetypes="cc" /><path
         style="fill:none;stroke:#000000;stroke-width:1;stroke-dasharray:none;stroke-opacity:1"
         d="M 38.720095,71.321988 38.877991,33.522962"
         id="path11"
         sodipodi:nodetypes="cc" /><path
         style="fill:none;stroke:#000000;stroke-width:1;stroke-dasharray:none;stroke-opacity:1"
         d="m 38.902005,65.538006 23.629365,0.01908"
         id="path12"
         sodipodi:nodetypes="cc" /><path
         style="fill:none;stroke:#000000;stroke-width:1;stroke-dasharray:none;stroke-opacity:1"
         d="m 66.438407,65.581716 1.766328,-0.0062 0.137918,-32.196678"
         id="path13"
         sodipodi:nodetypes="ccc" /><path
         style="fill:none;stroke:#000000;stroke-width:1;stroke-dasharray:none;stroke-opacity:1"
         d="m 76.198997,65.535328 -7.66587,0.03243"
         id="path14"
         sodipodi:nodetypes="cc" /><path
         style="fill:none;stroke:#000000;stroke-width:1;stroke-dasharray:none;stroke-opacity:1"
         d="m 79.7321,65.561601 2.756204,-0.04022 -0.02237,-32.374074"
         id="path15"
         sodipodi:nodetypes="ccc" /><path
         style="fill:none;stroke:#000000;stroke-width:1;stroke-dasharray:none;stroke-opacity:1"
         d="m 104.65899,65.496737 -21.885154,0.02219"
         id="path16"
         sodipodi:nodetypes="cc" /><path
         style="fill:none;stroke:#000000;stroke-width:1;stroke-dasharray:none;stroke-opacity:1"
         d="m 108.38008,65.513574 5.47262,-0.09769"
         id="path17"
         sodipodi:nodetypes="cc" /><path
         style="fill:none;stroke:#000000;stroke-width:1;stroke-dasharray:none;stroke-opacity:1"
         d="m 112.05,65.644583 0.0934,-32.794001"
         id="path18"
         sodipodi:nodetypes="cc" /><path
         style="fill:none;stroke:#000000;stroke-width:1;stroke-dasharray:none;stroke-opacity:1"
         d="m 142.01633,32.658473 -0.048,32.658473"
         id="path19" /><path
         style="fill:none;stroke:#000000;stroke-width:1;stroke-dasharray:none;stroke-opacity:1"
         d="m 143.17677,65.372771 -25.53033,0.08374"
         id="path20"
         sodipodi:nodetypes="cc" /><path
         style="fill:none;stroke:#000000;stroke-width:1;stroke-dasharray:none;stroke-opacity:1"
         d="m 146.95081,65.320223 25.51802,-0.151874"
         id="path21"
         sodipodi:nodetypes="cc" /><path
         style="fill:none;stroke:#000000;stroke-width:1;stroke-dasharray:none;stroke-opacity:1"
         d="m 171.3129,65.028783 0.048,-32.610446"
         id="path22" /><path
         style="fill:none;stroke:#000000;stroke-width:1;stroke-dasharray:none;stroke-opacity:1"
         d="m 175.94815,65.087885 25.52581,-0.05747"
         id="path23"
         sodipodi:nodetypes="cc" /><path
         style="fill:none;stroke:#000000;stroke-width:1;stroke-dasharray:none;stroke-opacity:1"
         d="M 63.302064,75.799468 62.974557,126.0831 72.074992,126.071"
         id="path24"
         sodipodi:nodetypes="ccc" /><path
         style="fill:none;stroke:#000000;stroke-width:1;stroke-dasharray:none;stroke-opacity:1"
         d="m 77.97293,126.06076 3.871478,-0.0679 -0.295496,-50.125451"
         id="path25"
         sodipodi:nodetypes="ccc" /><path
         style="fill:none;stroke:#000000;stroke-width:1;stroke-dasharray:none;stroke-opacity:1"
         d="M 70.026212,86.395093 69.890369,116.48395 H 63.132262"
         id="path26"
         sodipodi:nodetypes="ccc" /><path
         style="fill:none;stroke:#000000;stroke-width:1;stroke-dasharray:none;stroke-opacity:1"
         d="m 63.346174,126.07154 -53.5609622,0.29287 0.3047652,43.25092 61.814201,-0.60025"
         id="path27"
         sodipodi:nodetypes="cccc" /><path
         style="fill:none;stroke:#000000;stroke-width:1;stroke-dasharray:none;stroke-opacity:1"
         d="M 78.176691,168.98663 196.15489,168.85079 195.94474,125.78908 81.912329,126.0268"
         id="path28"
         sodipodi:nodetypes="cccc" /><path
         style="fill:none;stroke:#000000;stroke-width:1;stroke-dasharray:none;stroke-opacity:1"
         d="m 38.866807,169.43984 -0.01842,-1.45857"
         id="path29"
         sodipodi:nodetypes="cc" /><path
         style="fill:none;stroke:#000000;stroke-width:1;stroke-dasharray:none;stroke-opacity:1"
         d="m 38.853977,164.82923 v -38.4523"
         id="path30"
         sodipodi:nodetypes="cc" /><path
         style="fill:none;stroke:#000000;stroke-width:1;stroke-dasharray:none;stroke-opacity:1"
         d="m 41.45139,159.78934 -2.38129,0.0211"
         id="path31"
         sodipodi:nodetypes="cc" /><path
         style="fill:none;stroke:#000000;stroke-width:1;stroke-dasharray:none;stroke-opacity:1"
         d="m 44.939613,159.81632 25.442018,0.0313 -0.06988,-9.81071"
         id="path32"
         sodipodi:nodetypes="ccc" /><path
         style="fill:none;stroke:#000000;stroke-width:1;stroke-dasharray:none;stroke-opacity:1"
         d="M 70.269903,146.72339 70.215717,135.2445"
         id="path33"
         sodipodi:nodetypes="cc" /><path
         style="fill:none;stroke:#000000;stroke-width:1;stroke-dasharray:none;stroke-opacity:1"
         d="m 70.259224,131.92689 -0.04351,-5.61544"
         id="path34"
         sodipodi:nodetypes="cc" /><path
         style="fill:none;stroke:#000000;stroke-width:1;stroke-dasharray:none;stroke-opacity:1"
         d="m 52.925937,126.21539 0.09605,33.52296"
         id="path35" /><path
         style="fill:none;stroke:#000000;stroke-width:1;stroke-dasharray:none;stroke-opacity:1"
         d="m 70.311771,140.7196 -17.083715,0.007"
         id="path36"
         sodipodi:nodetypes="cc" /><path
         style="fill:none;stroke:#000000;stroke-width:1;stroke-dasharray:none;stroke-opacity:1"
         d="m 70.16153,136.5597 -5.247674,0.0173"
         id="path37"
         sodipodi:nodetypes="cc" /><path
         style="fill:none;stroke:#000000;stroke-width:1;stroke-dasharray:none;stroke-opacity:1"
         d="m 61.85899,140.7196 v -4.13034 l -5.190211,0.002"
         id="path38"
         sodipodi:nodetypes="ccc" /><path
         style="fill:none;stroke:#000000;stroke-width:1;stroke-dasharray:none;stroke-opacity:1"
         d="M 54.190238,136.62045 H 52.749423"
         id="path39"
         sodipodi:nodetypes="cc" /><path
         style="fill:none;stroke:#000000;stroke-width:1;stroke-dasharray:none;stroke-opacity:1"
         d="m 81.826446,126.02328 -0.18553,32.64663 23.634634,-0.0842"
         id="path40"
         sodipodi:nodetypes="ccc" /><path
         style="fill:none;stroke:#000000;stroke-width:1;stroke-dasharray:none;stroke-opacity:1"
         d="m 109.12956,158.48439 24.92808,-0.0855"
         id="path41"
         sodipodi:nodetypes="cc" /><path
         style="fill:none;stroke:#000000;stroke-width:1;stroke-dasharray:none;stroke-opacity:1"
         d="m 110.27037,125.83118 -0.0908,32.92953"
         id="path42"
         sodipodi:nodetypes="cc" /><path
         style="fill:none;stroke:#000000;stroke-width:1;stroke-dasharray:none;stroke-opacity:1"
         d="m 138.03008,158.39359 24.68596,-0.0737"
         id="path43"
         sodipodi:nodetypes="cc" /><path
         style="fill:none;stroke:#000000;stroke-width:1;stroke-dasharray:none;stroke-opacity:1"
         d="m 138.79851,158.48965 0.0118,-32.47163"
         id="path44"
         sodipodi:nodetypes="cc" /><path
         style="fill:none;stroke:#000000;stroke-width:1;stroke-dasharray:none;stroke-opacity:1"
         d="m 167.23059,126.21539 v 32.27426"
         id="path45" /><path
         style="fill:none;stroke:#000000;stroke-width:1;stroke-dasharray:none;stroke-opacity:1"
         d="m 166.46742,158.30938 24.93466,-0.11448"
         id="path46"
         sodipodi:nodetypes="cc" /><path
         style="fill:none;stroke:#000000;stroke-width:1;stroke-dasharray:none;stroke-opacity:1"
         d="m 194.89424,158.20149 h 1.24871"
         id="path47" /><path
         style="fill:none;stroke:#000000;stroke-width:1;stroke-dasharray:none;stroke-opacity:1"
         d="m 70.263744,145.20788 -5.273948,0.0262"
         id="path48"
         sodipodi:nodetypes="cc" /><path
         style="fill:none;stroke:#000000;stroke-width:1;stroke-dasharray:none;stroke-opacity:1"
         d="m 61.781809,140.86 0.0045,4.24403"
         id="path49"
         sodipodi:nodetypes="cc" /><path
         style="fill:none;stroke:#000000;stroke-width:1;stroke-dasharray:none;stroke-opacity:1"
         d="m 62.517414,145.25262 -5.845358,-0.0185"
         id="path50"
         sodipodi:nodetypes="cc" /><path
         style="fill:none;stroke:#000000;stroke-width:1;stroke-dasharray:none;stroke-opacity:1"
         d="M 53.310154,145.09007 Z"
         id="path51" /><path
         style="fill:none;stroke:#000000;stroke-width:1;stroke-dasharray:none;stroke-opacity:1"
         d="m 54.22267,145.28218 -1.434655,-0.005"
         id="path52"
         sodipodi:nodetypes="cc" /><path
         style="fill:none;stroke:#000000;stroke-width:1;stroke-dasharray:none;stroke-opacity:1"
         d="m 53.172232,151.21579 h 1.016367"
         id="path53"
         sodipodi:nodetypes="cc" /><path
         style="fill:none;stroke:#000000;stroke-width:1;stroke-dasharray:none;stroke-opacity:1"
         d="m 56.76811,151.23755 1.208477,0.008 -0.05582,8.49299"
         id="path54"
         sodipodi:nodetypes="ccc" /><path
         style="fill:none;stroke:#000000;stroke-width:1;stroke-dasharray:none;stroke-opacity:1"
         d="M 70.551907,154.40734 H 58.112871"
         id="path55"
         sodipodi:nodetypes="cc" /><path
         style="fill:none;stroke:#000000;stroke-width:1;stroke-dasharray:none;stroke-opacity:1"
         d="m 63.302064,169.05455 0.01209,50.34225"
         id="path56"
         sodipodi:nodetypes="cc" /><path
         style="fill:none;stroke:#000000;stroke-width:1;stroke-dasharray:none;stroke-opacity:1"
         d="m 81.39233,168.81372 0.669894,50.57713"
         id="path57" /><path
         style="fill:none;stroke:#000000;stroke-width:1;stroke-dasharray:none;stroke-opacity:1"
         d="m 78.029305,219.03674 117.789995,0.11165 0.57179,42.55754 L 9.8251371,262.93407 9.6807866,219.2583 72.069613,218.99331"
         id="path58"
         sodipodi:nodetypes="cccccc" /><path
         style="fill:none;stroke:#000000;stroke-width:1;stroke-dasharray:none;stroke-opacity:1"
         d="m 38.993514,262.38978 v -1.11649"
         id="path59"
         sodipodi:nodetypes="cc" /><path
         style="fill:none;stroke:#000000;stroke-width:1;stroke-dasharray:none;stroke-opacity:1"
         d="M 39.021424,257.23995 39.1889,219.5025"
         id="path60" /><path
         style="fill:none;stroke:#000000;stroke-width:1;stroke-dasharray:none;stroke-opacity:1"
         d="m 39.1889,252.07618 2.65167,2e-5"
         id="path61"
         sodipodi:nodetypes="cc" /><path
         style="fill:none;stroke:#000000;stroke-width:1;stroke-dasharray:none;stroke-opacity:1"
         d="m 45.273784,251.99244 23.278877,-0.0279 10e-7,-32.74116"
         id="path62"
         sodipodi:nodetypes="ccc" /><path
         style="fill:none;stroke:#000000;stroke-width:1;stroke-dasharray:none;stroke-opacity:1"
         d="m 81.838926,219.00007 0.116437,35.43031 23.804427,0.0183"
         id="path63"
         sodipodi:nodetypes="ccc" /><path
         style="fill:none;stroke:#000000;stroke-width:1;stroke-dasharray:none;stroke-opacity:1"
         d="m 109.41631,254.50455 25.06525,-0.19539"
         id="path64"
         sodipodi:nodetypes="cc" /><path
         style="fill:none;stroke:#000000;stroke-width:1;stroke-dasharray:none;stroke-opacity:1"
         d="M 110.53279,254.50455 110.25367,218.8326"
         id="path65" /><path
         style="fill:none;stroke:#000000;stroke-width:1;stroke-dasharray:none;stroke-opacity:1"
         d="m 139.00336,218.94425 0.27912,35.67195"
         id="path66" /><path
         style="fill:none;stroke:#000000;stroke-width:1;stroke-dasharray:none;stroke-opacity:1"
         d="m 138.08225,254.25334 24.75823,-0.0558"
         id="path67"
         sodipodi:nodetypes="cc" /><path
         style="fill:none;stroke:#000000;stroke-width:1;stroke-dasharray:none;stroke-opacity:1"
         d="m 166.7203,254.19751 h 24.84196"
         id="path68"
         sodipodi:nodetypes="cc" /><path
         style="fill:none;stroke:#000000;stroke-width:1;stroke-dasharray:none;stroke-opacity:1"
         d="m 195.07922,254.16959 h 1.06067"
         id="path69"
         sodipodi:nodetypes="cc" /><path
         style="fill:none;stroke:#000000;stroke-width:1;stroke-dasharray:none;stroke-opacity:1"
         d="m 167.47393,254.1696 -0.0558,-35.28118"
         id="path70" /><path
         style="fill:none;stroke:#000000;stroke-width:1;stroke-dasharray:none;stroke-opacity:1"
         d="m 61.835995,136.57012 0.98685,0.0197"
         id="path71"
         sodipodi:nodetypes="cc" /><path
         style="fill:none;stroke:#000000;stroke-width:1;stroke-dasharray:none;stroke-opacity:1"
         d="m 70.171576,179.47623 v 29.75453 l -6.587307,0.0558"
         id="path72" /></g><path
       style="fill:#66d216;fill-opacity:1;stroke:none;stroke-width:0;stroke-dasharray:none;stroke-opacity:1"
       d="m 177.17817,95.96975 2.94341,-8.95194 -21.1845,-7.49096 -3.25013,9.08796 -3.91408,-1.17028 -14.47096,39.17545 -26.66944,-10.96227 -1.33738,3.46821 2.52968,3.22174 -2.46042,5.28141 -22.245553,-8.36632 -7.692353,14.45283 37.105116,8.6291 69.63905,-1.88129 -0.89785,-51.41682 -1.55537,-0.47265 -3.31412,7.49517 -2.40136,-0.58694 z"
       id="path76" /><path
       style="fill:#66d216;fill-opacity:1;stroke:none;stroke-width:0;stroke-dasharray:none;stroke-opacity:1"
       d="m 95.748727,110.51166 6.819973,2.75702 34.58827,13.50732 9.6526,-25.6911 -13.2825,-5.12194 -0.65446,1.69721 11.67598,4.67197 -7.80178,22.75992 -34.60788,-13.89629 4.79352,-7.8147 -1.27083,-1.21056 1.61686,-1.66514 -1.35886,-1.20213 4.2992,-0.92747 -0.12661,-1.32029 -2.45151,-1.66585 z"
       id="path77" /><path
       style="fill:#66d216;fill-opacity:1;stroke:none;stroke-width:0;stroke-dasharray:none;stroke-opacity:1"
       d="M 86.023221,115.61924 96.260885,102.69891 81.700767,91.10839 71.588004,104.03451 Z"
       id="path78" /><path
       style="fill:#66d216;fill-opacity:1;stroke:none;stroke-width:0;stroke-dasharray:none;stroke-opacity:1"
       d="M 78.791382,54.470153 55.883307,83.10236 73.081608,97.19358 96.494637,69.010389 Z"
       id="path79" /><path
       style="display:inline;fill:#66d216;fill-opacity:1;stroke:none;stroke-width:0;stroke-dasharray:none;stroke-opacity:1"
       d="m 115.79699,76.32652 -6.13869,7.12647 0.59519,1.20429 -4.23193,5.14928 -13.95773,-12.163495 9.81931,-11.725432 z"
       id="path80" /><path
       style="fill:#9ee5f0;fill-opacity:1;stroke:none;stroke-width:0;stroke-dasharray:none;stroke-opacity:1"
       d="m 101.86166,74.216294 -2.390445,3.231644 6.724175,5.093522 2.20606,-3.302788 z"
       id="path81" /><path
       style="fill:#adadad;fill-opacity:1;stroke:none;stroke-width:0;stroke-dasharray:none;stroke-opacity:1"
       d="m 183.22406,100.84407 7.06942,-19.65174 -55.24877,-19.609504 -1.97452,-1.693823 13.10817,-35.971295 -3.66834,0.280717 -12.81115,33.881976 -1.54432,-0.171694 -2.13559,0.702241 -0.98337,1.231312 -0.61979,0.947713 -0.77359,1.566511 0.16349,1.334518 -0.0979,1.572774 1.21349,1.908929 -4.13186,4.340216 -49.820613,-38.96173 -4.871634,6.258803 8.368359,7.973797 -29.046694,35.758679 0.39546,2.27162 0.946779,1.72131 40.269654,32.73579 40.688369,-50.341491 2.14621,0.14951 2.86823,-0.843555 52.30672,20.424596 0.41094,-2.38448 -54.10619,-21.033736 -3.97515,0.416724 -41.125766,50.596632 -37.596233,-31.53537 30.519111,-37.818568 39.148758,28.828211 8.89499,-9.877983 -0.6347,-1.431459 0.17262,-2.645885 1.71509,-0.271059 1.84041,-0.816057 1.67935,1.58 0.29952,1.641257 -0.0407,1.425189 1.89014,0.813632 0.52906,-1.152212 51.92716,19.430584 z"
       id="path82" /><path
       style="fill:#66d216;fill-opacity:1;stroke:none;stroke-width:0;stroke-dasharray:none;stroke-opacity:1"
       d="M 184.12341,78.72829 134.097,60.963079 l -1.29259,-2.363258 10.93742,-27.484284 12.5687,3.236159 2.00398,0.518464 12.67283,0.987687 14.20753,-0.79393 1.80739,43.672562 z"
       id="path83" /><path
       style="fill:#66d216;fill-opacity:1;stroke:none;stroke-width:0;stroke-dasharray:none;stroke-opacity:1"
       d="m 140.29055,29.95418 -12.59338,-7.568651 -27.27782,-0.262235 1.38325,2.567744 32.01607,23.365259 z"
       id="path84" /><path
       style="fill:#66d216;fill-opacity:1;stroke:none;stroke-width:0;stroke-dasharray:none;stroke-opacity:1"
       d="m 73.688993,25.717016 -4.24128,6.162827 -2.287591,-0.882117 -1.788843,0.242605 -2.101844,1.054317 -0.847343,1.53805 -0.450028,1.606535 0.571576,2.254742 0.87823,2.118728 2.058974,2.574021 1.957684,1.517778 4.380233,3.808207 0.964611,0.795785 -27.864165,34.010816 1.280037,3.71466 16.903205,13.9774 -16.278843,38.47829 0.106569,1.48211 0.878301,2.11872 1.225041,1.6591 0.758179,3.08961 -31.092828,-1.14001 8.588202,-120.529215 45.910451,-2.554947 z"
       id="path85" /><path
       style="fill:#8a8a8a;fill-opacity:1;stroke:none;stroke-width:0;stroke-dasharray:none;stroke-opacity:1"
       d="m 94.791962,29.023073 9.692268,6.958548 -9.90776,12.28466 7.2919,5.27004 9.10136,-12.171801 9.62379,7.355963 4.21189,-4.987461 -25.324066,-20.276177 z"
       id="path86"
       sodipodi:nodetypes="ccccccccc" /><path
       style="fill:#8a8a8a;fill-opacity:1;stroke:none;stroke-width:0;stroke-dasharray:none;stroke-opacity:1"
       d="m 105.20895,90.59511 -8.884937,-8.17297 -3.341366,2.94974 1.049995,0.57442 -0.807398,1.21443 2.19593,1.77919 0.824232,-1.0384 4.663844,4.17186 0.99493,-1.48114 1.55495,1.02343 z"
       id="path87" /><path
       style="fill:#727272;fill-opacity:1;stroke:none;stroke-width:0;stroke-dasharray:none;stroke-opacity:1"
       d="m 113.57246,91.10776 -2.32083,4.69952 23.41517,8.52065 1.36677,-4.64357 z"
       id="path88"
       sodipodi:nodetypes="ccccc" /><path
       style="fill:#ffb229;fill-opacity:1;stroke:none;stroke-width:0;stroke-dasharray:none;stroke-opacity:1"
       d="m 125.57279,42.842217 -4.97392,6.304141 -9.73136,-7.7365 -10.63605,13.953411 20.33666,16.06429 4.01266,-4.470923 -1.60459,-2.653113 0.49625,-2.605861 0.995,-1.481142 1.76759,-1.946078 3.16339,-0.729732 0.95591,-2.259087 2.41435,-7.799735 z"
       id="path89" /><path
       style="fill:#ffb229;fill-opacity:1;stroke:none;stroke-width:0;stroke-dasharray:none;stroke-opacity:1"
       d="m 186.67385,84.20429 -52.35308,-19.425273 -0.4384,1.356704 52.42591,20.555299 z"
       id="path90" /><path
       style="fill:#ffb229;fill-opacity:1;stroke:none;stroke-width:0;stroke-dasharray:none;stroke-opacity:1"
       d="m 127.6222,69.400905 -11.10098,13.180785 7.67958,3.38521 6.34455,-15.353993 z"
       id="path91" /><path
       style="fill:#c5c5c5;fill-opacity:1;stroke:none;stroke-width:0;stroke-dasharray:none;stroke-opacity:1"
       d="m 155.94959,77.173691 -4.17252,10.198709 4.08628,1.21612 3.39736,-9.898257 z"
       id="path92" /><path
       style="fill:#bababa;fill-opacity:1;stroke:none;stroke-width:0;stroke-dasharray:none;stroke-opacity:1"
       d="m 177.51065,95.55749 2.67371,-8.79874 3.82912,1.41664 -3.51605,7.87454 z"
       id="path93" /><path
       style="fill:#66d216;fill-opacity:1;stroke:none;stroke-width:0;stroke-dasharray:none;stroke-opacity:1"
       d="m 64.861975,101.68678 -12.099479,29.97816 -2.748389,6.97181 -0.0214,1.61004 1.066115,2.20922 1.865096,2.15773 1.195724,0.94057 65.184988,4.57777 -3.12459,-8.21759 -29.467047,-22.75108 z"
       id="path94" /><path
       style="fill:#ffb229;fill-opacity:1;stroke:none;stroke-width:0;stroke-dasharray:none;stroke-opacity:1"
       d="m 87.170583,119.22002 22.424877,8.52751 2.43774,-5.23355 -2.88791,-3.39126 1.13053,-2.62086 -15.460604,-6.3814 z"
       id="path95" /></g></svg>
